<svg xmlns="http://www.w3.org/2000/svg" version="1.1" xmlns:xlink="http://www.w3.org/1999/xlink" xmlns:svgjs="http://svgjs.dev/svgjs" width="100%" height="100%" viewBox="0 0 1000 600"><rect width="1000" height="600" x="0" y="0" fill="#E2D3F"/><g><circle r="166.66666666666666" cx="392.3427073160807" cy="414.5648380541429" fill="#0097a7" transform="matrix(0.5538914716830008,0,0,0.5538914716830007,0,70.37604790990484)"/><path d="M261.63437393398107 355.56484249506644L251.4399294895366 355.56484249506644L251.4399294895366 339.56484249506644L293.82881837842547 339.56484249506644L293.82881837842547 355.56484249506644L280.0510406006477 355.56484249506644L316.0510406006477 471.370398050622L352.24548504509215 355.56484249506644L338.43992948953655 355.56484249506644L338.43992948953655 339.56484249506644L380.82881837842547 339.56484249506644L380.82881837842547 355.56484249506644L370.634373933981 355.56484249506644L328.82881837842547 489.56484249506644L303.4399294895366 489.56484249506644L261.63437393398107 355.56484249506644ZM433.2454850450921 362.37039805062204L433.2454850450921 473.56484249506644L447.2454850450922 473.56484249506644L447.2454850450922 489.56484249506644L400.82881837842547 489.56484249506644L400.82881837842547 473.56484249506644L414.82881837842547 473.56484249506644L414.82881837842547 355.56484249506644L400.82881837842547 355.56484249506644L400.82881837842547 339.56484249506644L442.4399294895366 339.56484249506644L500.82881837842547 466.95373138395536L500.82881837842547 355.56484249506644L486.8288183784255 355.56484249506644L486.8288183784255 339.56484249506644L533.2454850450922 339.56484249506644L533.2454850450922 355.56484249506644L519.2454850450922 355.56484249506644L519.2454850450922 489.56484249506644L491.63437393398107 489.56484249506644L433.2454850450921 362.37039805062204Z " fill="white" transform="matrix(0.5538914716830008,0,0,0.5538914716830007,0,70.37604790990484)"/><path d="M652.5371449300746 355.56484249506644L642.3427004856303 355.56484249506644L642.3427004856303 339.56484249506644L684.7315893745192 339.56484249506644L684.7315893745192 355.56484249506644L670.9538115967414 355.56484249506644L706.9538115967414 471.370398050622L743.1482560411858 355.56484249506644L729.3427004856303 355.56484249506644L729.3427004856303 339.56484249506644L771.7315893745192 339.56484249506644L771.7315893745192 355.56484249506644L761.5371449300746 355.56484249506644L719.7315893745192 489.56484249506644L694.3427004856303 489.56484249506644L652.5371449300746 355.56484249506644ZM868.9538115967414 489.56484249506644L812.5371449300746 489.56484249506644L791.7315893745191 467.56484249506644L791.7315893745191 381.56484249506644L812.5371449300746 359.56484249506644L868.9538115967414 359.56484249506644L889.7315893745191 381.56484249506644L889.7315893745191 467.56484249506644L868.9538115967414 489.56484249506644ZM810.1482560411858 461.7592869395109L820.3427004856303 472.370398050622L860.9538115967414 472.370398050622L871.3427004856302 461.7592869395109L871.3427004856302 387.370398050622L861.1482560411858 376.7592869395109L820.5371449300746 376.7592869395109L810.1482560411858 387.370398050622L810.1482560411858 461.7592869395109ZM954.1482560411857 473.56484249506644L954.1482560411857 489.56484249506644L911.7315893745192 489.56484249506644L911.7315893745192 473.56484249506644L923.3427004856303 473.56484249506644L960.1482560411857 422.95373138395536L925.3427004856303 375.56484249506644L913.7315893745192 375.56484249506644L913.7315893745192 359.56484249506644L956.1482560411857 359.56484249506644L956.1482560411857 375.56484249506644L945.9538115967414 375.56484249506644L971.7315893745192 410.95373138395536L997.3427004856303 375.56484249506644L987.1482560411857 375.56484249506644L987.1482560411857 359.56484249506644L1029.5371449300746 359.56484249506644L1029.5371449300746 375.56484249506644L1017.9538115967414 375.56484249506644L982.1482560411857 424.95373138395536L1017.7315893745192 473.56484249506644L1029.5371449300746 473.56484249506644L1029.5371449300746 489.56484249506644L987.1482560411857 489.56484249506644L987.1482560411857 473.56484249506644L997.1482560411857 473.56484249506644L970.3427004856303 436.95373138395536L943.9538115967414 473.56484249506644L954.1482560411857 473.56484249506644ZM1083.9538115967414 362.37039805062204L1083.9538115967414 473.56484249506644L1097.9538115967414 473.56484249506644L1097.9538115967414 489.56484249506644L1051.5371449300746 489.56484249506644L1051.5371449300746 473.56484249506644L1065.5371449300746 473.56484249506644L1065.5371449300746 355.56484249506644L1051.5371449300746 355.56484249506644L1051.5371449300746 339.56484249506644L1093.1482560411857 339.56484249506644L1151.5371449300746 466.95373138395536L1151.5371449300746 355.56484249506644L1137.5371449300746 355.56484249506644L1137.5371449300746 339.56484249506644L1183.9538115967412 339.56484249506644L1183.9538115967412 355.56484249506644L1169.9538115967412 355.56484249506644L1169.9538115967412 489.56484249506644L1142.3427004856303 489.56484249506644L1083.9538115967414 362.37039805062204ZM1291.148256041186 489.56484249506644L1234.731589374519 489.56484249506644L1213.9538115967414 467.56484249506644L1213.9538115967414 381.56484249506644L1234.731589374519 359.56484249506644L1291.148256041186 359.56484249506644L1311.9538115967414 381.56484249506644L1311.9538115967414 467.56484249506644L1291.148256041186 489.56484249506644ZM1232.3427004856303 461.7592869395109L1242.5371449300746 472.370398050622L1283.148256041186 472.370398050622L1293.5371449300746 461.7592869395109L1293.5371449300746 387.370398050622L1283.3427004856303 376.7592869395109L1242.731589374519 376.7592869395109L1232.3427004856303 387.370398050622L1232.3427004856303 461.7592869395109ZM1342.9538115967412 375.56484249506644L1331.9538115967412 375.56484249506644L1331.9538115967412 359.56484249506644L1374.3427004856303 359.56484249506644L1374.3427004856303 375.56484249506644L1361.3427004856303 375.56484249506644L1396.5371449300746 473.7592869395109L1431.9538115967414 375.56484249506644L1418.9538115967412 375.56484249506644L1418.9538115967412 359.56484249506644L1461.3427004856303 359.56484249506644L1461.3427004856303 375.56484249506644L1450.3427004856303 375.56484249506644L1409.3427004856303 489.56484249506644L1383.9538115967414 489.56484249506644L1342.9538115967412 375.56484249506644ZM1579.731589374519 489.56484249506644L1537.3427004856303 489.56484249506644L1537.3427004856303 473.56484249506644L1550.5371449300746 473.56484249506644L1541.9538115967414 448.7592869395109L1491.9538115967414 448.7592869395109L1483.3427004856303 473.56484249506644L1496.731589374519 473.56484249506644L1496.731589374519 489.56484249506644L1454.3427004856303 489.56484249506644L1454.3427004856303 473.56484249506644L1464.9538115967412 473.56484249506644L1498.7315893745192 375.56484249506644L1490.3427004856303 375.56484249506644L1490.3427004856303 359.56484249506644L1543.731589374519 359.56484249506644L1543.731589374519 375.56484249506644L1535.148256041186 375.56484249506644L1568.9538115967412 473.56484249506644L1579.731589374519 473.56484249506644L1579.731589374519 489.56484249506644ZM1536.5371449300746 432.7592869395109L1516.9538115967414 376.17595360617753L1497.3427004856303 432.7592869395109L1536.5371449300746 432.7592869395109Z " fill="#0097a7" transform="matrix(0.5538914716830008,0,0,0.5538914716830007,0,70.37604790990484)"/></g></svg>